<?xml version="1.0" encoding="UTF-8" standalone="no"?>
<svg
   xmlns:dc="http://purl.org/dc/elements/1.1/"
   xmlns:cc="http://creativecommons.org/ns#"
   xmlns:rdf="http://www.w3.org/1999/02/22-rdf-syntax-ns#"
   xmlns:svg="http://www.w3.org/2000/svg"
   xmlns="http://www.w3.org/2000/svg"
   id="svg8"
   version="1.1"
   viewBox="0 0 233.3298 60.907902"
   height="60.907902mm"
   width="233.3298mm">
  <title
     id="title3764">logo-black</title>
  <defs
     id="defs2" />
  <metadata
     id="metadata5">
    <rdf:RDF>
      <cc:Work
         rdf:about="">
        <dc:format>image/svg+xml</dc:format>
        <dc:type
           rdf:resource="http://purl.org/dc/dcmitype/StillImage" />
        <dc:title>logo-black</dc:title>
      </cc:Work>
    </rdf:RDF>
  </metadata>
  <g
     transform="translate(36.648946,-135.68685)"
     id="layer1">
    <g
       id="g3762">
      <text
         xml:space="preserve"
         style="font-style:normal;font-weight:normal;font-size:68.11663055px;line-height:1.25;font-family:sans-serif;letter-spacing:0px;word-spacing:0px;fill:#000000;fill-opacity:1;stroke:none;stroke-width:1.70291555"
         x="35.369495"
         y="191.66882"
         id="text3715"><tspan
           id="tspan3713"
           x="35.369495"
           y="191.66882"
           style="font-style:normal;font-variant:normal;font-weight:normal;font-stretch:normal;font-family:'Gill Sans MT';-inkscape-font-specification:'Gill Sans MT';stroke-width:1.70291555">FIRST</tspan></text>
      <g
         style="font-style:normal;font-weight:normal;font-size:12px;font-family:Dialog;color-interpolation:auto;fill:#000000;fill-opacity:1;stroke:#000000;stroke-width:1;stroke-linecap:square;stroke-linejoin:miter;stroke-miterlimit:10;stroke-dasharray:none;stroke-dashoffset:0;stroke-opacity:1;color-rendering:auto;image-rendering:auto;shape-rendering:auto;text-rendering:auto"
         id="g3754"
         transform="matrix(0.26458333,0,0,0.26458333,-39.699909,90.852381)">
        <g
           id="g3743">
          <g
             id="g3741">
            <path
               id="path3739"
               d="M 289.4062,399.6562 Q 247.9219,378 204.6094,378 q -22.0782,0 -37.9688,4.9219 -0.7031,0.2812 -8.7187,3.2343 -6.8907,2.6719 -7.875,2.6719 0.5625,0 -16.1719,-5.2031 -16.7344,-5.2031 -40.0781,-5.2031 -42.4688,0 -82.2657,21.2343 V 186.3281 q 29.9532,-16.875 66.0938,-16.875 27.2812,0 50.9062,8.2969 0.5626,0.1406 11.5313,4.6406 9.2813,3.7969 10.4063,3.7969 0,0 11.3906,-4.3594 26.2968,-10.125 58.0781,-10.125 35.8594,0 69.4687,14.625 z m -9,-29.8124 v -177.75 Q 252,180.7031 220.2188,180.7031 q -34.3126,0 -65.6719,12.7969 v 178.1719 q 31.6406,-13.9219 65.3906,-13.9219 33.1875,0 60.4687,12.0938 z m 0,16.7343 v -7.5937 q -24.4687,-11.8125 -57.5156,-11.8125 -23.3437,0 -47.3906,7.0312 16.5938,-3.375 34.1719,-3.375 35.8593,0 70.7343,15.75 z M 146.3906,371.6719 V 193.5 q -33.6094,-14.625 -68.3437,-14.625 -31.6407,0 -58.9219,12.375 V 369.8438 Q 45.2812,357.75 78.0469,357.75 q 32.7656,0 68.3437,13.9219 z m -20.8125,2.9531 Q 97.875,367.1719 76.5,367.1719 q -32.7656,0 -57.2344,11.8125 -0.1406,2.8125 -0.1406,3.375 0,0.7031 0.1406,2.1094 0,1.4062 0,2.1093 33.8906,-15.75 70.4532,-15.75 18.9843,0 35.8593,3.7969 z M 261.4219,216.8438 q -2.5313,-0.7032 -7.4531,-1.8282 v -9 q 2.5312,0.7032 7.4531,1.9688 z m -13.0781,-2.8126 q -15.8907,-2.1093 -35.5782,-2.1093 v -9 h 21.7969 q 2.8125,0 13.7813,2.25 z m 13.0781,27.1407 q -1.6875,-0.7031 -7.4531,-1.8281 v -8.8594 q 2.8124,0.4218 7.4531,1.4062 z m -13.0781,-3.0938 q -8.2969,-1.5469 -21.9376,-2.3906 v -9.2813 l 21.9376,2.6719 z m -40.6407,-26.2969 -22.3593,3.2344 v -8.4375 q 12.9374,-3.2343 17.2968,-3.2343 h 5.0625 z m 53.7188,52.875 h -1.4063 q -2.3906,0 -5.9062,-0.9843 -4.7813,-1.4063 -5.9063,-1.5469 -7.3125,-0.7031 -21.7969,-2.3906 v -9 l 35.0157,5.0625 z m -40.0781,-29.3906 -21.6563,1.4063 v -8.8594 q 16.7344,-1.4063 17.4375,-1.4063 0.4219,0 4.2188,0.4219 z m 40.0781,54.2813 q -2.5313,-0.7031 -7.4531,-2.3907 v -8.8593 q 2.5312,0.7031 7.4531,2.25 z m -81.2813,-73.2657 q -2.5312,0.7032 -7.875,1.8282 v -8.4375 q 0.2813,-0.1407 7.875,-2.25 z m 68.2032,69.6094 q -8.0157,0 -8.0157,0 v -8.8594 h 8.0157 z m -27,-26.1562 h -8.5782 v -9 h 8.5782 z m 13.5,24.6094 q -6.0469,-0.2813 -8.4376,0 v -9 q 8.4376,0 8.4376,0 z m 26.5781,29.5312 q -1.6875,-0.7031 -7.4531,-1.8281 v -8.8594 q 2.5312,0.4219 7.4531,1.2656 z m -67.6407,-76.3594 -21.5156,5.0625 v -8.8593 q 12.7969,-3.375 21.5156,-5.0626 z m 54.5626,73.125 q -2.6719,-0.4218 -8.0157,-1.2656 v -9 q 2.1094,0.4219 8.0157,1.4062 z m -27.1407,-26.8594 q -1.8281,-0.2812 -8.4375,0 v -8.5781 h 8.4375 z m -13.5,-23.625 q -18.8437,1.9688 -35.4375,7.1719 v -8.8593 q 19.6875,-7.3126 35.4375,-7.3126 z m 53.7188,77.625 h -1.4063 q -2.3906,0 -5.9062,-1.125 -4.7813,-1.5468 -5.9063,-1.8281 -8.5781,-1.6875 -21.7969,-2.5312 v -8.8594 h 3.6563 q 6.6094,0 31.3594,5.4844 z m -26.5781,-28.8281 h -2.3907 q -2.25,0 -6.539,-0.4219 -4.2891,-0.4218 -6.5391,-0.4218 -3.2344,0 -9.8438,0.6328 -6.6093,0.6328 -9.8437,0.6328 v -8.8594 q 10.2656,-1.4062 23.2031,-1.4062 5.9063,0 10.9688,0.5625 l 0.9844,-0.4219 z M 126.4219,220.5 q -2.8125,-0.7031 -8.4375,-2.3906 V 209.25 h 1.9687 q 0.9844,0 6.4688,2.25 z m 81.2812,63.9844 q -8.2969,0.2812 -18.5625,2.5312 -0.2812,0.1406 -8.4375,2.3906 -5.0625,1.4063 -8.5781,1.4063 v -8.4375 q 3.5156,-1.6875 15.6797,-4.2188 12.1641,-2.5312 16.2422,-2.5312 h 3.6562 z M 112.5,216.8438 q -7.7344,-1.125 -23.3438,-3.6563 v -8.8594 q 15.4688,1.8281 23.3438,3.6563 z m 81.2812,94.3593 h -8.4374 v -8.0156 q 2.9531,-0.5625 8.4374,-1.4063 z m 27.5626,20.6719 q -7.1719,0.4219 -21.6563,1.8281 v -8.8593 q 10.8281,-1.4063 11.5313,-1.4063 h 10.125 z m -94.9219,-87.0469 q -8.1563,-2.9531 -22.7813,-5.4843 v -8.8594 q 7.5938,1.6875 22.7813,5.4844 z m 53.7187,68.0625 q -2.8125,1.125 -7.875,2.8125 v -8.8593 q 1.8282,-0.4219 7.875,-2.3907 z M 83.1094,213.1875 H 64.125 q -2.9531,0 -8.5078,1.3359 -5.5547,1.336 -8.5078,1.336 V 207 q 28.8281,-3.2344 28.2656,-3.2344 h 7.7344 z m 14.4844,25.7344 q -13.6407,-1.2657 -22.9219,-1.2657 v -9 h 13.6406 q 0,0 9.2813,1.4063 z m 96.1874,95.625 q -10.9687,2.25 -21.5156,5.4843 v -8.8593 l 18.9844,-5.4844 q 0.5625,0 2.5312,0 z m -67.3593,-65.3907 q -22.0781,-6.4687 -37.2657,-6.3281 v -9.2812 q 20.5313,1.5469 37.2657,6.75 z m -84.375,-51.8906 q -2.3907,0.7032 -7.4531,1.8282 v -8.8594 q 2.5312,-0.7032 7.4531,-1.8282 z m 27.1406,20.25 -22.0781,3.2344 v -8.8594 l 22.0781,-3.2344 z m 57.2344,56.1094 q -23.4844,-6.3281 -37.2657,-6.8906 v -8.8594 h 2.3907 q 8.5781,0 34.875,6.3281 z M 83.1094,262.4062 h -8.4375 v -9.4218 h 8.4375 z m 43.3125,55.9688 q -4.5,-1.5469 -8.4375,-2.25 v -9.4219 l 8.4375,2.8125 z m -84.375,-76.7812 q -3.5157,0.7031 -7.4531,2.25 v -8.8594 q 2.3906,-0.7032 7.0312,-2.25 z m 70.3125,67.6406 q 0,2.5312 -0.4219,5.4844 -2.3906,-0.8438 -8.2969,-1.8282 v -8.8594 l 8.4375,1.4063 q 0.2813,1.6875 0.2813,3.7969 z m -29.25,-22.9219 h -8.4375 v -8.8594 h 8.4375 z M 69.1875,262.4062 q -12.9375,0.5626 -24.4687,3.5157 -9.1407,2.3906 -10.2657,2.3906 v -8.8594 q 12.9375,-4.3593 34.7344,-6.4687 z m 0,24.3282 h -8.0156 v -8.8594 h 8.0156 z m 57.2344,55.9687 q -3.6563,-1.4062 -22.7813,-4.9219 v -9 q 2.3906,0 2.3906,0 l 20.3907,5.0626 z M 97.5938,312.0469 h -3.9376 q -0.9843,0 -2.8828,-0.4219 -1.8984,-0.4219 -2.8828,-0.4219 H 61.1719 v -8.2969 H 97.5938 Z M 55.125,288.1406 q -4.5,0.8438 -8.0156,1.4063 v -9 q 2.8125,-0.7031 8.0156,-1.2657 z m 42.4688,48.7969 h -1.4063 q 0.5625,0 -21.5156,-1.4063 v -9 h 10.5469 q 0.2812,0 12.375,1.4063 z m -55.5469,-46.125 q -2.5313,0.7031 -7.4531,1.8281 v -8.8594 q 2.5312,-0.7031 7.4531,-1.8281 z m 13.0781,21.6563 q -2.6719,0.7031 -8.0156,1.8281 v -8.8594 q 2.6718,-0.7031 8.0156,-1.8281 z m -13.0781,3.2343 q -0.4219,0.1407 -7.5938,1.2657 v -8.4376 q 2.5313,-0.7031 7.5938,-2.25 z m 27.1406,19.8281 q -22.7813,2.9532 -34.5937,6.3282 V 333 q 7.875,-2.9531 34.5937,-6.3281 z"
               style="stroke:none" />
          </g>
        </g>
      </g>
    </g>
  </g>
</svg>
